<svg t="1756393594569" class="icon" viewBox="0 0 1024 1024" version="1.1" xmlns="http://www.w3.org/2000/svg" p-id="6698"
    width="200" height="200">
    <path
        d="M856.3 64.5H167.7c-57 0-103.3 46.2-103.3 103.3v688.5c0 57 46.2 103.3 103.3 103.3h688.5c57 0 103.3-46.2 103.3-103.3V167.7c0-57-46.2-103.2-103.2-103.2zM250.6 533.4C318.1 506.1 359 469 381.3 413.2h-68.8c-23.5 0-44 1.2-58.8 3.7v-39.6c13.6 2.5 32.8 3.7 57 3.7h79.9c4.3-22.3 5-27.2 6.2-62.5h-64.4c-11.7 16.7-21.7 28.5-42.1 48.3-10.5-11.8-13.6-14.9-27.3-22.9 41.5-34 65.7-69.3 78-115.2l37.2 10.5c-2.5 4.3-3.1 4.9-5 9.9-6.2 11.8-11.1 22.3-19.2 36.6h118.3c24.8 0 42.7-1.3 57.6-3.7v39.6c-17.3-2.5-33.5-3.1-56.4-3.1H432c-1.9 37.8-2.5 39.6-6.2 62.5H489c23.6 0 40.3-1.2 55.7-3.7v39.6c-15.5-2.5-32.8-3.7-55.1-3.7h-72.5c-1.2 3.7-1.2 3.7-3.1 9.3 31.6 14.9 79.9 42.1 118.3 66.9l-21.7 32.8c-35.9-29.7-58.2-44.6-108.4-72.5-26 48.3-65 83.6-125.7 113.4-6.7-11.8-12.2-18.6-25.9-29.7z m423.7 261.9v-29.7H384.4v29.7h-41.5c2.5-15.5 3.7-34.6 3.7-63.1V602.7c0-34.1-0.6-50.2-2.5-68.1 19.8 1.9 36.5 2.5 66.9 2.5h236.6c30.4 0 46.5-0.6 66.9-2.5-1.8 19.2-2.5 32.2-2.5 68.1v129.5c0 31 1.2 47 3.7 63.1h-41.4z m99.1-298.5c-15.5-1.9-27.9-2.5-50.2-2.5H612.9c-22.9 0-35.3 0.6-51.4 2.5 1.9-16.7 2.5-26.6 2.5-45.8V327.2c0-20.5-0.6-33.5-2.5-50.8 15.5 1.8 27.9 2.5 51.4 2.5h109c24.2 0 35.9-0.7 51.4-2.5-1.9 15.5-2.5 29.1-2.5 50.1v122c0.1 20.5 0.7 33.5 2.6 48.3z"
        fill="#3C69EF" p-id="6699"></path>
    <path d="M601.2 312.3h131.9v149.3H601.2zM384.4 571.1h289.9v61.3H384.4zM384.4 665.3h289.9v66.3H384.4z" fill="#3C69EF"
        p-id="6700"></path>
</svg>